# xmcd
#
# Track frame offsets: 
#        150
#        26607
#        48748
#        78474
#        90861
#        109493
#        128308
#        149653
#        173006
#        196611
#        213340
#        228200
#        246566
#
# Disc length: 3525 seconds
#
# Revision: 0
# Processed by: cddbd v1.5.2PL0 Copyright (c) Steve Scherf et al.
# Submitted via: ExactAudioCopy v0.99pb5
#
DISCID=aa0dc30d
DTITLE=Matt Harlan - Tips and Compliments 
DYEAR=2009
DGENRE=Texas Country
TTITLE0=Elizabethtown
TTITLE1=Skinny Trees of Mississippi
TTITLE2=Something New
TTITLE3=Suitcase Blues
TTITLE4=Driving Song
TTITLE5=Everybody Else
TTITLE6=Waiting For Godot
TTITLE7=Over The Bridge
TTITLE8=Tips and Compliments
TTITLE9=Walter
TTITLE10=Warm November
TTITLE11=You're Just Drunk
TTITLE12=Dresses
EXTD=
EXTT0=
EXTT1=
EXTT2=
EXTT3=
EXTT4=
EXTT5=
EXTT6=
EXTT7=
EXTT8=
EXTT9=
EXTT10=
EXTT11=
EXTT12=
PLAYORDER=
